# Blender 5.0.0
# www.blender.org
o MechaUpper.001
v -1.617395 7.207297 2.152398
v -1.635943 1.080994 1.635943
v 1.617395 7.207297 2.152398
v 1.635943 1.080994 1.635943
v -2.366099 2.302854 2.278562
v -0.363764 4.782303 3.386774
v -0.363764 3.505989 3.551908
v 2.366099 2.302854 2.552626
v 1.635943 1.080994 1.117926
v -2.460083 7.207297 1.349783
v 1.617395 7.207297 1.470847
v -2.478631 1.080994 1.025468
v -3.208787 2.302854 1.429009
v 2.366099 2.302854 1.744344
v -0.363764 5.815336 1.704855
v -0.363764 3.505989 1.704855
v 0.912549 4.782303 3.386774
v 0.912549 3.505989 3.551908
v 0.912549 5.815336 1.704855
v 0.912549 3.505989 1.704855
v 1.617395 7.207297 -0.035350
v -2.478631 1.080994 -0.026533
v 2.366099 2.302854 -0.041923
v 1.635943 1.080994 -0.026868
v -2.460083 7.207297 -0.034327
v -3.208787 2.302854 -0.036231
v -1.617395 7.207297 -2.152398
v -1.635943 1.080994 -1.635943
v 1.617395 7.207297 -2.152398
v 1.635943 1.080994 -1.635943
v -2.366099 2.302854 -2.278562
v -0.363764 4.782303 -3.386774
v -0.363764 3.505989 -3.551908
v 2.366099 2.302854 -2.552626
v 1.635943 1.080994 -1.117926
v -2.460083 7.207297 -1.349783
v 1.617395 7.207297 -1.470847
v -2.478631 1.080994 -1.025468
v -3.208787 2.302854 -1.429009
v 2.366099 2.302854 -1.744344
v -0.363764 5.815336 -1.704855
v -0.363764 3.505989 -1.704855
v 0.912549 4.782303 -3.386774
v 0.912549 3.505989 -3.551908
v 0.912549 5.815336 -1.704855
v 0.912549 3.505989 -1.704855
v 1.617395 7.207297 0.035350
v -2.478631 1.080994 0.026533
v 2.366099 2.302854 0.041923
v 1.635943 1.080994 0.026868
v -2.460083 7.207297 0.034327
v -3.208787 2.302854 0.036231
v -0.243789 0.017076 0.667945
v -0.243789 1.293389 1.343158
v -0.368287 0.017076 0.655683
v -0.500015 1.293389 1.317922
v -0.488001 0.017076 0.619368
v -0.746394 1.293389 1.243183
v -0.598330 0.017076 0.560396
v -0.973458 1.293389 1.121815
v -0.695034 0.017076 0.481034
v -1.172481 1.293389 0.958481
v -0.774397 0.017076 0.384330
v -1.335815 1.293389 0.759457
v -0.833369 0.017076 0.274001
v -1.457184 1.293389 0.532393
v -0.869684 0.017076 0.154287
v -1.531922 1.293389 0.286014
v -0.881946 0.017076 0.029789
v -1.557158 1.293389 0.029789
v -0.869684 0.017076 -0.094709
v -1.531922 1.293389 -0.226437
v -0.833369 0.017076 -0.214423
v -1.457184 1.293389 -0.472816
v -0.774397 0.017076 -0.324752
v -1.335815 1.293389 -0.699880
v -0.695034 0.017076 -0.421456
v -1.172481 1.293389 -0.898903
v -0.598330 0.017076 -0.500819
v -0.973458 1.293389 -1.062238
v -0.488001 0.017076 -0.559791
v -0.746394 1.293389 -1.183606
v -0.368287 0.017076 -0.596106
v -0.500015 1.293389 -1.258344
v -0.243789 0.017076 -0.608368
v -0.243789 1.293389 -1.283580
v -0.119291 0.017076 -0.596106
v 0.012437 1.293389 -1.258344
v 0.000423 0.017076 -0.559791
v 0.258816 1.293389 -1.183606
v 0.110752 0.017076 -0.500819
v 0.485880 1.293389 -1.062238
v 0.207456 0.017076 -0.421456
v 0.684903 1.293389 -0.898903
v 0.286819 0.017076 -0.324752
v 0.848237 1.293389 -0.699880
v 0.345791 0.017076 -0.214423
v 0.969606 1.293389 -0.472816
v 0.382105 0.017076 -0.094709
v 1.044344 1.293389 -0.226437
v 0.394367 0.017076 0.029789
v 1.069580 1.293389 0.029789
v 0.382105 0.017076 0.154287
v 1.044344 1.293389 0.286014
v 0.345791 0.017076 0.274001
v 0.969606 1.293389 0.532393
v 0.286819 0.017076 0.384330
v 0.848237 1.293389 0.759457
v 0.207456 0.017076 0.481034
v 0.684903 1.293389 0.958481
v 0.110752 0.017076 0.560396
v 0.485880 1.293389 1.121815
v 0.000423 0.017076 0.619368
v 0.258816 1.293389 1.243183
v -0.119291 0.017076 0.655683
v 0.012437 1.293389 1.317922
vn 0.9885 0.1509 -0.0000
vn -0.0343 0.0536 0.9980
vn -0.0289 -0.5377 0.8427
vn 0.8584 -0.5130 -0.0000
vn -0.5327 -0.5815 0.6149
vn -0.6949 0.1209 0.7089
vn -0.0000 -1.0000 -0.0000
vn -0.0000 1.0000 -0.0000
vn -0.0000 0.8521 0.5234
vn -0.0000 -0.0000 -1.0000
vn -1.0000 -0.0000 -0.0000
vn -0.9885 0.1509 -0.0000
vn -0.8584 -0.5130 -0.0000
vn -0.0000 0.1283 0.9917
vn 1.0000 -0.0000 -0.0000
vn -0.0343 0.0536 -0.9980
vn -0.0289 -0.5377 -0.8427
vn -0.5327 -0.5815 -0.6149
vn -0.6949 0.1209 -0.7089
vn -0.0000 0.8521 -0.5234
vn -0.0000 -0.0000 1.0000
vn -0.0000 0.1283 -0.9917
vn -0.0867 -0.4659 0.8806
vn -0.2569 -0.4659 0.8468
vn -0.4171 -0.4659 0.7804
vn -0.5613 -0.4659 0.6840
vn -0.6840 -0.4659 0.5613
vn -0.7804 -0.4659 0.4171
vn -0.8468 -0.4659 0.2569
vn -0.8806 -0.4659 0.0867
vn -0.8806 -0.4659 -0.0867
vn -0.8468 -0.4659 -0.2569
vn -0.7804 -0.4659 -0.4171
vn -0.6840 -0.4659 -0.5613
vn -0.5613 -0.4659 -0.6840
vn -0.4171 -0.4659 -0.7804
vn -0.2569 -0.4659 -0.8468
vn -0.0867 -0.4659 -0.8806
vn 0.0867 -0.4659 -0.8806
vn 0.2569 -0.4659 -0.8468
vn 0.4171 -0.4659 -0.7804
vn 0.5613 -0.4659 -0.6840
vn 0.6840 -0.4659 -0.5613
vn 0.7804 -0.4659 -0.4171
vn 0.8468 -0.4659 -0.2569
vn 0.8806 -0.4659 -0.0867
vn 0.8806 -0.4659 0.0867
vn 0.8468 -0.4659 0.2569
vn 0.7804 -0.4659 0.4171
vn 0.6840 -0.4659 0.5613
vn 0.5613 -0.4659 0.6840
vn 0.4171 -0.4659 0.7804
vn 0.2569 -0.4659 0.8468
vn 0.0867 -0.4659 0.8806
vt 0.424861 0.210419
vt 0.625000 0.210419
vt 0.625000 0.250000
vt 0.424861 0.250000
vt 0.625000 0.500000
vt 0.424861 0.500000
vt 0.375000 0.250000
vt 0.375000 0.500000
vt 0.375000 0.210419
vt 0.375000 0.122947
vt 0.424861 0.122947
vt 0.424861 0.539581
vt 0.375000 0.539581
vt 0.625000 0.539581
vt 0.125000 0.500000
vt 0.125000 0.539581
vt 0.625000 0.122947
vt 0.875000 0.500000
vt 0.875000 0.539581
vt 0.375000 0.000000
vt 0.625000 0.000000
vt 0.625000 0.750000
vt 0.375000 0.750000
vt 0.625000 1.000000
vt 0.375000 1.000000
vt 0.875000 0.627053
vt 0.625000 0.627053
vt 0.375000 0.627053
vt 0.125000 0.627053
vt 0.424861 0.627053
vt 0.125000 0.750000
vt 0.875000 0.750000
vt 1.000000 0.500000
vt 1.000000 1.000000
vt 0.968750 1.000000
vt 0.968750 0.500000
vt 0.937500 1.000000
vt 0.937500 0.500000
vt 0.906250 1.000000
vt 0.906250 0.500000
vt 0.875000 1.000000
vt 0.843750 1.000000
vt 0.843750 0.500000
vt 0.812500 1.000000
vt 0.812500 0.500000
vt 0.781250 1.000000
vt 0.781250 0.500000
vt 0.750000 1.000000
vt 0.750000 0.500000
vt 0.718750 1.000000
vt 0.718750 0.500000
vt 0.687500 1.000000
vt 0.687500 0.500000
vt 0.656250 1.000000
vt 0.656250 0.500000
vt 0.593750 1.000000
vt 0.593750 0.500000
vt 0.562500 1.000000
vt 0.562500 0.500000
vt 0.531250 1.000000
vt 0.531250 0.500000
vt 0.500000 1.000000
vt 0.500000 0.500000
vt 0.468750 1.000000
vt 0.468750 0.500000
vt 0.437500 1.000000
vt 0.437500 0.500000
vt 0.406250 1.000000
vt 0.406250 0.500000
vt 0.343750 1.000000
vt 0.343750 0.500000
vt 0.312500 1.000000
vt 0.312500 0.500000
vt 0.281250 1.000000
vt 0.281250 0.500000
vt 0.250000 1.000000
vt 0.250000 0.500000
vt 0.218750 1.000000
vt 0.218750 0.500000
vt 0.187500 1.000000
vt 0.187500 0.500000
vt 0.156250 1.000000
vt 0.156250 0.500000
vt 0.125000 1.000000
vt 0.093750 1.000000
vt 0.093750 0.500000
vt 0.062500 1.000000
vt 0.062500 0.500000
vt 0.296822 0.485388
vt 0.250000 0.490000
vt 0.203178 0.485388
vt 0.158156 0.471731
vt 0.116663 0.449553
vt 0.080294 0.419706
vt 0.050447 0.383337
vt 0.028269 0.341844
vt 0.014612 0.296822
vt 0.010000 0.250000
vt 0.014612 0.203178
vt 0.028269 0.158156
vt 0.050447 0.116663
vt 0.080294 0.080294
vt 0.116663 0.050447
vt 0.158156 0.028269
vt 0.203178 0.014612
vt 0.250000 0.010000
vt 0.296822 0.014612
vt 0.341844 0.028269
vt 0.383337 0.050447
vt 0.419706 0.080294
vt 0.449553 0.116663
vt 0.471731 0.158156
vt 0.485388 0.203178
vt 0.490000 0.250000
vt 0.485388 0.296822
vt 0.471731 0.341844
vt 0.449553 0.383337
vt 0.419706 0.419706
vt 0.383337 0.449553
vt 0.341844 0.471731
vt 0.031250 1.000000
vt 0.031250 0.500000
vt 0.000000 1.000000
vt 0.000000 0.500000
vt 0.750000 0.490000
vt 0.796822 0.485388
vt 0.841844 0.471731
vt 0.883337 0.449553
vt 0.919706 0.419706
vt 0.949553 0.383337
vt 0.971731 0.341844
vt 0.985388 0.296822
vt 0.990000 0.250000
vt 0.985388 0.203178
vt 0.971731 0.158156
vt 0.949553 0.116663
vt 0.919706 0.080294
vt 0.883337 0.050447
vt 0.841844 0.028269
vt 0.796822 0.014612
vt 0.750000 0.010000
vt 0.703178 0.014612
vt 0.658156 0.028269
vt 0.616663 0.050447
vt 0.580294 0.080294
vt 0.550447 0.116663
vt 0.528269 0.158156
vt 0.514612 0.203178
vt 0.510000 0.250000
vt 0.514612 0.296822
vt 0.528269 0.341844
vt 0.550447 0.383337
vt 0.580294 0.419706
vt 0.616663 0.449553
vt 0.658156 0.471731
vt 0.703178 0.485388
s 0
f 14/1/1 11/2/1 3/3/1 8/4/1
f 8/4/2 3/3/2 1/5/2 5/6/2
f 4/7/3 8/4/3 5/6/3 2/8/3
f 9/9/4 14/1/4 8/4/4 4/7/4
f 24/10/4 23/11/4 14/1/4 9/9/4
f 2/8/5 5/6/5 13/12/5 12/13/5
f 5/6/6 1/5/6 10/14/6 13/12/6
f 4/15/7 2/8/7 12/13/7 9/16/7
f 23/11/1 21/17/1 11/2/1 14/1/1
f 1/5/8 3/18/8 11/19/8 10/14/8
f 6/20/9 17/21/9 19/3/9 15/7/9
f 18/7/7 7/3/7 16/5/7 20/8/7
f 16/8/10 15/5/10 19/22/10 20/23/10
f 7/23/11 6/22/11 15/24/11 16/25/11
f 10/14/8 11/19/8 21/26/8 25/27/8
f 9/16/7 12/13/7 22/28/7 24/29/7
f 13/12/12 10/14/12 25/27/12 26/30/12
f 12/13/13 13/12/13 26/30/13 22/28/13
f 18/15/14 17/8/14 6/23/14 7/31/14
f 20/5/15 19/18/15 17/32/15 18/22/15
f 40/1/1 34/4/1 29/3/1 37/2/1
f 34/4/16 31/6/16 27/5/16 29/3/16
f 30/7/17 28/8/17 31/6/17 34/4/17
f 35/9/4 30/7/4 34/4/4 40/1/4
f 50/10/4 35/9/4 40/1/4 49/11/4
f 28/8/18 38/13/18 39/12/18 31/6/18
f 31/6/19 39/12/19 36/14/19 27/5/19
f 30/15/7 35/16/7 38/13/7 28/8/7
f 49/11/1 40/1/1 37/2/1 47/17/1
f 27/5/8 36/14/8 37/19/8 29/18/8
f 32/20/20 41/7/20 45/3/20 43/21/20
f 44/7/7 46/8/7 42/5/7 33/3/7
f 42/8/21 46/23/21 45/22/21 41/5/21
f 33/23/11 42/25/11 41/24/11 32/22/11
f 36/14/8 51/27/8 47/26/8 37/19/8
f 35/16/7 50/29/7 48/28/7 38/13/7
f 39/12/12 52/30/12 51/27/12 36/14/12
f 38/13/13 48/28/13 52/30/13 39/12/13
f 44/15/22 33/31/22 32/23/22 43/8/22
f 46/5/15 44/22/15 43/32/15 45/18/15
f 53/33/23 54/34/23 56/35/23 55/36/23
f 55/36/24 56/35/24 58/37/24 57/38/24
f 57/38/25 58/37/25 60/39/25 59/40/25
f 59/40/26 60/39/26 62/41/26 61/18/26
f 61/18/27 62/41/27 64/42/27 63/43/27
f 63/43/28 64/42/28 66/44/28 65/45/28
f 65/45/29 66/44/29 68/46/29 67/47/29
f 67/47/30 68/46/30 70/48/30 69/49/30
f 69/49/31 70/48/31 72/50/31 71/51/31
f 71/51/32 72/50/32 74/52/32 73/53/32
f 73/53/33 74/52/33 76/54/33 75/55/33
f 75/55/34 76/54/34 78/24/34 77/5/34
f 77/5/35 78/24/35 80/56/35 79/57/35
f 79/57/36 80/56/36 82/58/36 81/59/36
f 81/59/37 82/58/37 84/60/37 83/61/37
f 83/61/38 84/60/38 86/62/38 85/63/38
f 85/63/39 86/62/39 88/64/39 87/65/39
f 87/65/40 88/64/40 90/66/40 89/67/40
f 89/67/41 90/66/41 92/68/41 91/69/41
f 91/69/42 92/68/42 94/25/42 93/8/42
f 93/8/43 94/25/43 96/70/43 95/71/43
f 95/71/44 96/70/44 98/72/44 97/73/44
f 97/73/45 98/72/45 100/74/45 99/75/45
f 99/75/46 100/74/46 102/76/46 101/77/46
f 101/77/47 102/76/47 104/78/47 103/79/47
f 103/79/48 104/78/48 106/80/48 105/81/48
f 105/81/49 106/80/49 108/82/49 107/83/49
f 107/83/50 108/82/50 110/84/50 109/15/50
f 109/15/51 110/84/51 112/85/51 111/86/51
f 111/86/52 112/85/52 114/87/52 113/88/52
f 56/89/8 54/90/8 116/91/8 114/92/8 112/93/8 110/94/8 108/95/8 106/96/8 104/97/8 102/98/8 100/99/8 98/100/8 96/101/8 94/102/8 92/103/8 90/104/8 88/105/8 86/106/8 84/107/8 82/108/8 80/109/8 78/110/8 76/111/8 74/112/8 72/113/8 70/114/8 68/115/8 66/116/8 64/117/8 62/118/8 60/119/8 58/120/8
f 113/88/53 114/87/53 116/121/53 115/122/53
f 115/122/54 116/121/54 54/123/54 53/124/54
f 53/125/7 55/126/7 57/127/7 59/128/7 61/129/7 63/130/7 65/131/7 67/132/7 69/133/7 71/134/7 73/135/7 75/136/7 77/137/7 79/138/7 81/139/7 83/140/7 85/141/7 87/142/7 89/143/7 91/144/7 93/145/7 95/146/7 97/147/7 99/148/7 101/149/7 103/150/7 105/151/7 107/152/7 109/153/7 111/154/7 113/155/7 115/156/7
