# Blender 5.0.0
# www.blender.org
o Mecha_Bottom.001
v 0.650109 5.355401 0.950764
v 0.650109 6.300479 0.950764
v -0.685331 5.355401 0.950764
v -0.685331 6.300479 0.950764
v 0.815726 5.189784 0.000000
v 0.815726 6.466096 0.000000
v -0.850948 5.189784 0.000000
v -0.850948 6.466096 0.000000
v 0.815726 6.466096 0.950764
v 0.815726 5.189784 0.950764
v -0.850948 5.189784 0.950764
v -0.850948 6.466096 0.950764
v 0.650109 6.890721 2.597575
v 0.650109 5.945642 2.597575
v -0.685331 5.945642 2.597575
v -0.685331 6.890721 2.597575
v 0.650109 6.890721 4.138271
v 0.650109 5.945642 4.138271
v -0.685331 5.945642 4.138271
v -0.685331 6.890721 4.138271
v 1.042645 7.283257 2.597575
v 0.723745 5.553107 2.916475
v -0.758967 5.553107 2.916475
v -1.077866 7.283257 2.597575
v 1.042645 7.283257 4.138271
v 0.723745 5.553107 3.819372
v -0.758967 5.553107 3.819372
v -1.077866 7.283257 4.138271
v -1.077866 5.553107 2.597575
v 1.042645 5.553107 2.597575
v -1.077866 5.553107 4.138271
v 1.042645 5.553107 4.138271
v -0.758967 3.707816 2.916475
v 0.723745 3.707816 2.916475
v -0.758967 3.707816 3.819372
v 0.723745 3.707816 3.819372
v -0.758967 3.486887 2.916475
v 0.723745 3.486887 2.916475
v -0.758967 3.486887 3.819372
v 0.723745 3.486887 3.819372
v -0.583333 0.938319 3.023427
v 0.548112 0.938319 3.023427
v -0.583333 0.938319 3.712420
v 0.548112 0.938319 3.712420
v -0.964553 2.589138 2.710889
v 0.929332 2.589138 2.710889
v -0.964553 2.589138 4.024959
v 0.929332 2.589138 4.024959
v -0.740215 0.938319 2.866546
v 0.704993 0.938319 2.866546
v -0.740215 0.938319 3.869302
v 0.704993 0.938319 3.869302
v -0.473504 0.658892 3.023427
v 0.438282 0.658892 3.023427
v -0.473504 0.658892 3.712420
v 0.438282 0.658892 3.712420
v -0.473504 0.229760 3.023427
v 0.438282 0.229760 3.023427
v -0.473504 0.229760 3.712420
v 0.438282 0.229760 3.712420
v -1.520024 0.330812 3.023427
v -1.520024 0.330812 3.712420
v -1.520024 0.111011 3.023427
v -1.520024 0.111011 3.712420
v -0.583333 0.768723 3.023427
v 0.548112 0.768723 3.023427
v -0.583333 0.768723 3.712420
v 0.548112 0.768723 3.712420
v -0.583333 0.119930 3.023427
v 0.548112 0.119930 3.023427
v -0.583333 0.119930 3.712420
v 0.548112 0.119930 3.712420
v -0.473504 0.493106 2.656110
v 0.438282 0.493106 2.656110
v -0.473504 0.493106 4.079736
v 0.438282 0.493106 4.079736
v -0.473504 0.063972 2.656110
v 0.438282 0.063972 2.656110
v -0.473504 0.063972 4.079736
v 0.438282 0.063972 4.079736
v -0.323785 0.354372 2.250657
v 0.288563 0.354372 2.250657
v -0.323785 0.354372 4.485189
v 0.288563 0.354372 4.485189
v -0.323785 0.062237 2.250657
v 0.288563 0.062237 2.250657
v -0.323785 0.062237 4.485189
v 0.288563 0.062237 4.485189
v 0.650109 5.355401 -0.950764
v 0.650109 6.300479 -0.950764
v -0.685331 5.355401 -0.950764
v -0.685331 6.300479 -0.950764
v 0.815726 6.466096 -0.950764
v 0.815726 5.189784 -0.950764
v -0.850948 5.189784 -0.950764
v -0.850948 6.466096 -0.950764
v 0.650109 6.890721 -2.597575
v 0.650109 5.945642 -2.597575
v -0.685331 5.945642 -2.597575
v -0.685331 6.890721 -2.597575
v 0.650109 6.890721 -4.138271
v 0.650109 5.945642 -4.138271
v -0.685331 5.945642 -4.138271
v -0.685331 6.890721 -4.138271
v 1.042645 7.283257 -2.597575
v 0.723745 5.553107 -2.916475
v -0.758967 5.553107 -2.916475
v -1.077866 7.283257 -2.597575
v 1.042645 7.283257 -4.138271
v 0.723745 5.553107 -3.819371
v -0.758967 5.553107 -3.819371
v -1.077866 7.283257 -4.138271
v -1.077866 5.553107 -2.597575
v 1.042645 5.553107 -2.597575
v -1.077866 5.553107 -4.138271
v 1.042645 5.553107 -4.138271
v -0.758967 3.707817 -2.916475
v 0.723745 3.707817 -2.916475
v -0.758967 3.707817 -3.819371
v 0.723745 3.707817 -3.819371
v -0.758967 3.486887 -2.916475
v 0.723745 3.486887 -2.916475
v -0.758967 3.486887 -3.819371
v 0.723745 3.486887 -3.819371
v -0.583333 0.938320 -3.023427
v 0.548112 0.938320 -3.023427
v -0.583333 0.938320 -3.712420
v 0.548112 0.938320 -3.712420
v -0.964553 2.589139 -2.710888
v 0.929332 2.589139 -2.710888
v -0.964553 2.589139 -4.024958
v 0.929332 2.589139 -4.024958
v -0.740215 0.938320 -2.866545
v 0.704993 0.938320 -2.866545
v -0.740215 0.938320 -3.869301
v 0.704993 0.938320 -3.869301
v -0.473504 0.658892 -3.023427
v 0.438282 0.658892 -3.023427
v -0.473504 0.658892 -3.712420
v 0.438282 0.658892 -3.712420
v -0.473504 0.229760 -3.023427
v 0.438282 0.229760 -3.023427
v -0.473504 0.229760 -3.712420
v 0.438282 0.229760 -3.712420
v -1.520024 0.330812 -3.023427
v -1.520024 0.330812 -3.712420
v -1.520024 0.111011 -3.023427
v -1.520024 0.111011 -3.712420
v -0.583333 0.768723 -3.023427
v 0.548112 0.768723 -3.023427
v -0.583333 0.768723 -3.712420
v 0.548112 0.768723 -3.712420
v -0.583333 0.119930 -3.023427
v 0.548112 0.119930 -3.023427
v -0.583333 0.119930 -3.712420
v 0.548112 0.119930 -3.712420
v -0.473504 0.493106 -2.656110
v 0.438282 0.493106 -2.656110
v -0.473504 0.493106 -4.079736
v 0.438282 0.493106 -4.079736
v -0.473504 0.063973 -2.656110
v 0.438282 0.063973 -2.656110
v -0.473504 0.063973 -4.079736
v 0.438282 0.063973 -4.079736
v -0.323785 0.354373 -2.250657
v 0.288563 0.354373 -2.250657
v -0.323785 0.354373 -4.485189
v 0.288563 0.354373 -4.485189
v -0.323785 0.062237 -2.250657
v 0.288563 0.062237 -2.250657
v -0.323785 0.062237 -4.485189
v 0.288563 0.062237 -4.485189
vn 1.0000 -0.0000 -0.0000
vn -1.0000 -0.0000 -0.0000
vn -0.0000 1.0000 -0.0000
vn -0.0000 -1.0000 -0.0000
vn -0.0000 -0.0000 1.0000
vn -0.0000 -0.9414 0.3374
vn -0.0000 0.9414 -0.3374
vn -0.0000 -0.0000 -1.0000
vn -0.0000 0.2232 0.9748
vn 0.9748 0.2232 -0.0000
vn 0.9909 -0.1347 -0.0000
vn -0.0000 -0.0939 0.9956
vn -0.9909 -0.1347 -0.0000
vn -0.0000 -0.0939 -0.9956
vn -0.9748 0.2232 -0.0000
vn -0.0000 0.2232 -0.9748
vn 0.0095 -1.0000 -0.0000
vn -0.0000 -0.9115 0.4114
vn -0.4235 0.9059 -0.0000
vn -0.9381 -0.0000 -0.3464
vn 0.9381 -0.0000 -0.3464
vn -0.0000 0.9115 -0.4114
vn -0.0000 -0.9115 -0.4114
vn -0.0000 0.9115 0.4114
vn -0.0000 -1.0000 0.0043
vn -0.0000 0.9461 -0.3237
vn 0.9381 -0.0000 0.3464
vn -0.9381 -0.0000 0.3464
vn -0.0000 -1.0000 -0.0043
vn -0.0000 0.9461 0.3237
vn -0.0000 -0.9414 -0.3374
vn -0.0000 0.9414 0.3374
vt 0.375000 0.125000
vt 0.625000 0.125000
vt 0.625000 0.250000
vt 0.375000 0.250000
vt 0.592559 0.475158
vt 0.407441 0.475158
vt 0.625000 0.500000
vt 0.875000 0.500000
vt 0.875000 0.625000
vt 0.625000 0.625000
vt 0.125000 0.500000
vt 0.375000 0.500000
vt 0.375000 0.625000
vt 0.125000 0.625000
vt 0.592559 0.274842
vt 0.407441 0.274842
vt 0.407441 0.445032
vt 0.407441 0.445033
vt 0.407441 0.304967
vt 0.407441 0.304967
vt 0.407441 0.318564
vt 0.407441 0.431436
vt 0.407441 0.431436
vt 0.407441 0.318564
vt 0.407441 0.431436
vt 0.407441 0.318564
vt 0.407441 0.431436
s 0
f 5/1/1 6/2/1 9/3/1 10/4/1
f 4/5/2 3/6/2 15/6/2 16/5/2
f 12/7/3 9/8/3 6/9/3 8/10/3
f 10/11/4 11/12/4 7/13/4 5/14/4
f 11/12/2 12/7/2 8/10/2 7/13/2
f 2/15/5 1/16/5 10/4/5 9/3/5
f 1/16/5 3/6/5 11/12/5 10/4/5
f 4/5/5 2/15/5 9/3/5 12/7/5
f 3/6/5 4/5/5 12/7/5 11/12/5
f 17/15/5 18/16/5 32/16/5 25/15/5
f 3/6/6 1/16/6 14/16/6 15/6/6
f 2/15/7 4/5/7 16/5/7 13/15/7
f 1/16/1 2/15/1 13/15/1 14/16/1
f 18/16/5 17/15/5 20/5/5 19/6/5
f 20/5/5 17/15/5 25/15/5 28/5/5
f 15/6/8 14/16/8 30/16/8 29/6/8
f 16/5/8 15/6/8 29/6/8 24/5/8
f 24/5/2 29/6/2 31/6/2 28/5/2
f 27/17/2 23/18/2 33/18/2 35/17/2
f 21/15/3 24/5/3 28/5/3 25/15/3
f 30/16/1 21/15/1 25/15/1 32/16/1
f 13/15/8 16/5/8 24/5/8 21/15/8
f 19/6/5 20/5/5 28/5/5 31/6/5
f 14/16/8 13/15/8 21/15/8 30/16/8
f 18/16/5 19/6/5 31/6/5 32/16/5
f 22/19/4 23/18/4 29/6/4 30/16/4
f 27/17/4 26/20/4 32/16/4 31/6/4
f 23/18/4 27/17/4 31/6/4 29/6/4
f 26/20/4 22/19/4 30/16/4 32/16/4
f 35/17/2 33/18/2 37/18/2 39/17/2
f 23/18/8 22/19/8 34/19/8 33/18/8
f 22/19/1 26/20/1 36/20/1 34/19/1
f 26/20/5 27/17/5 35/17/5 36/20/5
f 42/19/4 41/18/4 49/18/4 50/19/4
f 33/18/8 34/19/8 38/19/8 37/18/8
f 34/19/1 36/20/1 40/20/1 38/19/1
f 36/20/5 35/17/5 39/17/5 40/20/5
f 44/20/5 43/17/5 67/17/5 68/20/5
f 41/18/4 43/17/4 51/17/4 49/18/4
f 40/20/9 39/17/9 47/17/9 48/20/9
f 38/19/10 40/20/10 48/20/10 46/19/10
f 46/19/11 48/20/11 52/20/11 50/19/11
f 48/20/12 47/17/12 51/17/12 52/20/12
f 47/17/13 45/18/13 49/18/13 51/17/13
f 45/18/14 46/19/14 50/19/14 49/18/14
f 39/17/15 37/18/15 45/18/15 47/17/15
f 44/20/4 42/19/4 50/19/4 52/20/4
f 37/18/16 38/19/16 46/19/16 45/18/16
f 43/17/4 44/20/4 52/20/4 51/17/4
f 69/18/17 71/17/17 64/17/17 63/18/17
f 43/17/2 41/18/2 65/18/2 67/17/2
f 41/18/8 42/19/8 66/19/8 65/18/8
f 42/19/1 44/20/1 68/20/1 66/19/1
f 69/18/4 70/19/4 72/20/4 71/17/4
f 58/21/18 57/22/18 77/22/18 78/21/18
f 66/19/1 68/20/1 72/20/1 70/19/1
f 57/22/2 53/23/2 73/23/2 77/22/2
f 62/17/2 61/18/2 63/18/2 64/17/2
f 67/17/19 65/18/19 61/18/19 62/17/19
f 71/17/5 67/17/5 62/17/5 64/17/5
f 65/18/8 69/18/8 63/18/8 61/18/8
f 54/24/8 53/23/8 65/18/8 66/19/8
f 55/25/5 56/21/5 68/20/5 67/17/5
f 57/22/8 58/21/8 70/19/8 69/18/8
f 60/26/5 59/27/5 71/17/5 72/20/5
f 53/23/8 57/22/8 69/18/8 65/18/8
f 59/27/5 55/25/5 67/17/5 71/17/5
f 58/21/8 54/24/8 66/19/8 70/19/8
f 56/21/5 60/26/5 72/20/5 68/20/5
f 77/22/20 73/23/20 81/23/20 85/22/20
f 74/24/21 78/21/21 86/21/21 82/24/21
f 53/23/22 54/24/22 74/24/22 73/23/22
f 60/26/1 56/21/1 76/21/1 80/26/1
f 55/25/2 59/27/2 79/27/2 75/25/2
f 59/27/23 60/26/23 80/26/23 79/27/23
f 56/21/24 55/25/24 75/25/24 76/21/24
f 54/24/1 58/21/1 78/21/1 74/24/1
f 81/23/8 82/24/8 86/21/8 85/22/8
f 84/21/5 83/25/5 87/27/5 88/26/5
f 78/21/25 77/22/25 85/22/25 86/21/25
f 73/23/26 74/24/26 82/24/26 81/23/26
f 80/26/27 76/21/27 84/21/27 88/26/27
f 75/25/28 79/27/28 87/27/28 83/25/28
f 79/27/29 80/26/29 88/26/29 87/27/29
f 76/21/30 75/25/30 83/25/30 84/21/30
f 5/1/1 94/4/1 93/3/1 6/2/1
f 92/5/2 100/5/2 99/6/2 91/6/2
f 96/7/3 8/10/3 6/9/3 93/8/3
f 94/11/4 5/14/4 7/13/4 95/12/4
f 95/12/2 7/13/2 8/10/2 96/7/2
f 90/15/8 93/3/8 94/4/8 89/16/8
f 89/16/8 94/4/8 95/12/8 91/6/8
f 92/5/8 96/7/8 93/3/8 90/15/8
f 91/6/8 95/12/8 96/7/8 92/5/8
f 101/15/8 109/15/8 116/16/8 102/16/8
f 91/6/31 99/6/31 98/16/31 89/16/31
f 90/15/32 97/15/32 100/5/32 92/5/32
f 89/16/1 98/16/1 97/15/1 90/15/1
f 102/16/8 103/6/8 104/5/8 101/15/8
f 104/5/8 112/5/8 109/15/8 101/15/8
f 99/6/5 113/6/5 114/16/5 98/16/5
f 100/5/5 108/5/5 113/6/5 99/6/5
f 108/5/2 112/5/2 115/6/2 113/6/2
f 111/17/2 119/17/2 117/18/2 107/18/2
f 105/15/3 109/15/3 112/5/3 108/5/3
f 114/16/1 116/16/1 109/15/1 105/15/1
f 97/15/5 105/15/5 108/5/5 100/5/5
f 103/6/8 115/6/8 112/5/8 104/5/8
f 98/16/5 114/16/5 105/15/5 97/15/5
f 102/16/8 116/16/8 115/6/8 103/6/8
f 106/19/4 114/16/4 113/6/4 107/18/4
f 111/17/4 115/6/4 116/16/4 110/20/4
f 107/18/4 113/6/4 115/6/4 111/17/4
f 110/20/4 116/16/4 114/16/4 106/19/4
f 119/17/2 123/17/2 121/18/2 117/18/2
f 107/18/5 117/18/5 118/19/5 106/19/5
f 106/19/1 118/19/1 120/20/1 110/20/1
f 110/20/8 120/20/8 119/17/8 111/17/8
f 126/19/4 134/19/4 133/18/4 125/18/4
f 117/18/5 121/18/5 122/19/5 118/19/5
f 118/19/1 122/19/1 124/20/1 120/20/1
f 120/20/8 124/20/8 123/17/8 119/17/8
f 128/20/8 152/20/8 151/17/8 127/17/8
f 125/18/4 133/18/4 135/17/4 127/17/4
f 124/20/16 132/20/16 131/17/16 123/17/16
f 122/19/10 130/19/10 132/20/10 124/20/10
f 130/19/11 134/19/11 136/20/11 132/20/11
f 132/20/14 136/20/14 135/17/14 131/17/14
f 131/17/13 135/17/13 133/18/13 129/18/13
f 129/18/12 133/18/12 134/19/12 130/19/12
f 123/17/15 131/17/15 129/18/15 121/18/15
f 128/20/4 136/20/4 134/19/4 126/19/4
f 121/18/9 129/18/9 130/19/9 122/19/9
f 127/17/4 135/17/4 136/20/4 128/20/4
f 153/18/17 147/18/17 148/17/17 155/17/17
f 127/17/2 151/17/2 149/18/2 125/18/2
f 125/18/5 149/18/5 150/19/5 126/19/5
f 126/19/1 150/19/1 152/20/1 128/20/1
f 153/18/4 155/17/4 156/20/4 154/19/4
f 142/21/23 162/21/23 161/22/23 141/22/23
f 150/19/1 154/19/1 156/20/1 152/20/1
f 141/22/2 161/22/2 157/23/2 137/23/2
f 146/17/2 148/17/2 147/18/2 145/18/2
f 151/17/19 146/17/19 145/18/19 149/18/19
f 155/17/8 148/17/8 146/17/8 151/17/8
f 149/18/5 145/18/5 147/18/5 153/18/5
f 138/24/5 150/19/5 149/18/5 137/23/5
f 139/25/8 151/17/8 152/20/8 140/21/8
f 141/22/5 153/18/5 154/19/5 142/21/5
f 144/26/8 156/20/8 155/17/8 143/27/8
f 137/23/5 149/18/5 153/18/5 141/22/5
f 143/27/8 155/17/8 151/17/8 139/25/8
f 142/21/5 154/19/5 150/19/5 138/24/5
f 140/21/8 152/20/8 156/20/8 144/26/8
f 161/22/28 169/22/28 165/23/28 157/23/28
f 158/24/27 166/24/27 170/21/27 162/21/27
f 137/23/24 157/23/24 158/24/24 138/24/24
f 144/26/1 164/26/1 160/21/1 140/21/1
f 139/25/2 159/25/2 163/27/2 143/27/2
f 143/27/18 163/27/18 164/26/18 144/26/18
f 140/21/22 160/21/22 159/25/22 139/25/22
f 138/24/1 158/24/1 162/21/1 142/21/1
f 165/23/5 169/22/5 170/21/5 166/24/5
f 168/21/8 172/26/8 171/27/8 167/25/8
f 162/21/29 170/21/29 169/22/29 161/22/29
f 157/23/30 165/23/30 166/24/30 158/24/30
f 164/26/21 172/26/21 168/21/21 160/21/21
f 159/25/20 167/25/20 171/27/20 163/27/20
f 163/27/25 171/27/25 172/26/25 164/26/25
f 160/21/26 168/21/26 167/25/26 159/25/26
